<svg width="600" height="263" viewBox="0 0 600 263" fill="none" xmlns="http://www.w3.org/2000/svg">
<path fill-rule="evenodd" clip-rule="evenodd" d="M88.2462 220.589C91.4419 223.232 95.1886 224.359 99.2332 224.568C100.906 224.655 102.627 224.573 104.273 224.274C106.884 223.799 109.487 223.204 112.027 222.439C117.198 220.878 121.667 218.182 125.004 213.827C126.905 211.345 128.465 208.661 129.468 205.693C130.295 203.245 131.073 200.771 131.691 198.266C132.18 196.292 132.423 194.253 132.719 192.236C132.917 190.903 133.036 189.554 133.159 188.208C133.359 186.023 133.567 183.842 133.712 181.652C133.814 180.129 133.81 178.599 133.869 177.075C133.888 176.609 133.963 176.147 134.008 175.685C134.045 175.256 134.263 175.108 134.702 175.115C136.242 175.138 137.787 175.177 139.326 175.108C141.05 175.031 142.787 174.956 144.485 174.673C146.9 174.268 149.302 173.756 151.668 173.139C154.464 172.406 157.031 171.095 159.502 169.604C162.377 167.866 165.002 165.827 167.126 163.2C168.979 160.914 169.856 158.264 169.409 155.373C168.76 151.174 165.23 148.422 161.127 148.235C159.64 148.167 158.131 148.324 156.651 148.511C154.859 148.739 153.093 149.142 151.306 149.408C150.072 149.594 148.822 149.676 147.592 149.804L147.558 149.644C149.858 145.298 152.255 141.002 154.431 136.597C156.102 133.216 157.528 129.715 159.003 126.237C161.446 120.481 163.395 114.548 165.011 108.515C166.557 102.74 167.88 96.9036 168.299 90.9116C168.467 88.5202 168.583 86.1181 168.567 83.7231C168.556 81.8113 168.349 79.8978 168.159 77.9933C167.941 75.8105 167.281 73.7418 166.368 71.7516C165.166 69.1266 163.299 66.9741 161.336 64.9304C159.764 63.2933 158.035 61.8025 156.321 60.3116C153.876 58.1859 151.126 56.4864 148.273 54.9795C145.029 53.2675 141.621 51.9264 138.065 51.0205C135.914 50.473 133.717 49.9897 131.542 49.5564C130.764 49.3995 129.979 49 129.197 49H114.452C113.919 49 113.391 49.3495 112.854 49.4084C109.325 49.8025 105.837 50.5051 102.449 51.5573C101.182 51.9478 100.027 51.7196 98.823 51.6072C97.8993 51.5216 96.9916 51.2844 96.0678 51.2381C92.5529 51.0633 89.0344 50.8101 85.5177 50.8475C82.1508 50.8832 78.8177 51.4396 75.5596 52.3633C72.8329 53.1409 70.1633 54.0843 67.7166 55.5198C66.6715 56.1333 65.8405 56.0174 64.758 55.7071C61.1183 54.6567 57.4553 53.6723 53.7621 52.8466C51.4598 52.3312 49.0897 52.0709 46.7375 51.8283C44.4816 51.593 42.2133 51.4539 39.9449 51.4057C37.73 51.3576 35.5008 51.3593 33.2949 51.5555C29.7835 51.8676 26.3399 52.5809 22.9908 53.7329C19.2726 55.0134 15.8629 56.8662 12.7902 59.2987C9.66942 61.7686 7.16563 64.7806 5.15583 68.2242C3.03546 71.8568 1.57848 75.7463 0.676123 79.8283C0.185709 82.0414 0.365825 84.3169 0.0287769 86.5639C-0.0746558 87.2594 0.133993 87.9585 0.133993 88.6575V98.439C0.133993 99.0882 -0.0568223 99.7391 0.0252105 100.392C0.226726 101.959 0.157176 103.539 0.422891 105.096C0.840188 107.561 1.21647 110.016 1.72293 112.463C2.43091 115.882 3.10679 119.297 3.89145 122.699C4.46212 125.176 5.08093 127.639 5.76038 130.088C6.7947 133.829 7.80406 137.576 8.9757 141.273C10.0653 144.709 11.3065 148.096 12.5459 151.484C14.2615 156.171 16.3087 160.706 18.7697 165.05C20.9008 168.814 23.3314 172.34 26.5949 175.238C28.7474 177.15 31.1388 178.617 33.9226 179.352C36.1125 179.926 38.3417 179.996 40.5797 179.537C43.178 179.006 45.4803 177.886 47.5258 176.212C47.7612 176.021 48.0162 175.873 48.2962 176.226C49.3555 177.567 50.7714 178.462 52.2534 179.234C56.2516 181.321 60.6082 181.947 65.0327 182.2C66.1062 182.261 67.1869 182.107 68.2658 182.079C70.3719 182.02 72.4156 181.61 74.4254 181.028C75.4811 180.723 76.5101 180.335 77.5837 179.974C77.639 181.117 77.7103 182.216 77.746 183.316L77.894 189.314C77.9225 190.227 77.9582 191.14 78.042 192.049C78.2596 194.392 78.4718 196.736 78.7517 199.072C78.9443 200.682 79.1476 202.303 79.5257 203.876C80.289 207.047 81.3197 210.134 82.6323 213.128C83.918 216.063 85.7709 218.544 88.2462 220.589V220.589ZM81.8422 190.687C81.7156 187.871 81.6211 185.053 81.5587 182.236C81.4838 178.772 81.4588 175.307 81.4107 171.844L81.4018 171.712C79.6416 172.77 77.9065 173.925 76.0714 174.879C73.9189 175.998 71.5828 176.645 69.1628 176.829C67.2672 176.971 65.343 177.101 63.4562 176.952C60.3603 176.7 57.2645 176.217 54.4932 174.69C53.3697 174.072 52.1963 173.317 51.4206 172.331C49.5641 169.961 50.454 166.967 53.2538 165.526C55.1887 164.527 57.3002 164.112 59.3974 163.627C61.2181 163.206 63.0336 162.726 64.8115 162.146C66.5699 161.57 67.6791 160.144 68.7758 158.744L70.5128 156.511L68.4245 156.294C66.3523 156.101 64.3746 155.529 62.4843 154.69C60.8686 153.975 60.8436 153.897 59.6559 155.184C57.6764 157.333 55.7505 159.536 53.8084 161.722C52.38 163.331 50.9622 164.948 49.5374 166.562C48.1321 168.158 46.8125 169.843 45.2948 171.327C43.0443 173.531 40.3301 174.856 37.0916 174.706C35.014 174.61 33.113 173.882 31.401 172.693C27.8718 170.236 25.4946 166.794 23.3279 163.183C20.5548 158.553 18.4237 153.622 16.603 148.558C15.3422 145.055 14.0742 141.551 12.9757 137.998C11.7791 134.138 10.7287 130.232 9.69617 126.323C8.91507 123.375 8.22314 120.402 7.56331 117.424C6.81253 114.038 6.09207 110.642 5.45542 107.233C5.02564 104.93 4.77776 102.594 4.43002 100.278C3.961 97.1515 3.8754 94.0004 4.0466 90.8635C4.19818 88.0369 4.603 85.2193 5.00603 82.4123C5.56421 78.5282 6.84463 74.8635 8.68502 71.4021C9.81387 69.2817 11.2102 67.354 12.8277 65.5635C15.4848 62.6228 18.7002 60.4989 22.2775 58.9028C24.7759 57.7882 27.417 57.1195 30.1081 56.5934C34.1027 55.8159 38.133 55.848 42.1633 55.93C43.9253 55.9674 45.6818 56.2867 47.442 56.4632C51.2333 56.8395 54.948 57.6384 58.6163 58.621C61.2912 59.3379 63.9109 60.2688 66.561 61.0749C66.8249 61.1551 67.2154 61.148 67.4348 61.0071C71.0282 58.6603 74.9533 57.1123 79.1316 56.226C80.717 55.8908 82.3541 55.7427 83.9751 55.6393C85.9439 55.5163 87.9323 55.3986 89.8975 55.5145C92.2604 55.65 94.6162 55.9978 96.9648 56.3188C98.1061 56.4757 99.2189 56.8698 100.36 56.9768C100.91 57.0285 101.489 56.6308 102.067 56.4953C105.017 55.8123 107.954 55.0544 110.93 54.5176C113.145 54.1181 115.41 53.9291 117.66 53.8007C120.175 53.6563 122.703 53.551 125.214 53.6723C128.389 53.8257 131.54 54.2769 134.65 55.0009C138.506 55.8979 142.201 57.1997 145.715 59.008C148.342 60.3615 150.837 61.9273 153.086 63.8533C154.559 65.1177 156.068 66.3642 157.396 67.773C159.037 69.51 160.71 71.2452 161.74 73.469C162.516 75.1471 163.069 76.884 163.222 78.7191C163.411 81.0035 163.641 83.2951 163.622 85.5831C163.602 87.7694 163.303 89.954 163.092 92.1368C162.609 97.1087 161.53 101.974 160.216 106.774C159.133 110.739 157.863 114.66 156.49 118.537C155.226 122.109 153.765 125.615 152.291 129.109C151.201 131.691 150.026 134.246 148.752 136.743C146.338 141.472 143.827 146.154 140.922 150.612C140.421 151.381 139.945 152.169 139.456 152.955C140.724 153.809 142.16 154.111 143.604 154.268C144.979 154.416 146.381 154.507 147.754 154.403C149.953 154.239 152.144 153.925 154.331 153.62C156.496 153.317 158.616 152.702 160.842 152.864C163.06 153.027 164.651 154.714 164.499 156.793C164.403 158.109 163.798 159.238 162.925 160.203C158.796 164.757 153.614 167.518 147.686 168.878C145.434 169.396 143.112 169.661 140.806 169.877C138.843 170.059 136.854 170.089 134.884 170.016C133.436 169.963 132 169.631 130.52 169.417C130.37 170.771 130.229 172.181 130.058 173.586L129.368 178.977C129.159 180.686 128.997 182.401 128.781 184.11C128.571 185.768 128.308 187.418 128.087 189.075C127.882 190.617 127.731 192.169 127.499 193.709C127.148 196.071 126.81 198.437 126.349 200.78C125.796 203.58 124.95 206.291 123.565 208.818C121.878 211.901 119.486 214.25 116.44 215.989C113.302 217.781 109.869 218.713 106.393 219.495C103.929 220.049 101.395 220.138 98.8997 219.912C94.5752 219.521 90.8837 217.672 88.0928 214.318C85.4303 211.116 83.6274 207.45 82.9836 203.297C82.6733 201.322 82.4521 199.332 82.2774 197.342C82.0776 195.125 81.9457 192.907 81.8422 190.687V190.687ZM86.7036 162.236C86.7303 163.716 86.577 165.196 86.5841 166.676C86.6144 173.565 86.6644 180.456 86.7232 187.347C86.7339 188.472 86.7892 189.601 86.8694 190.724C87.0388 193.078 87.2065 195.434 87.4347 197.781C87.5988 199.448 87.8217 201.11 88.0839 202.765C88.4584 205.107 89.5248 207.193 90.7339 209.189C91.7754 210.904 93.1325 212.359 94.9176 213.365C97.9528 215.072 101.218 215.215 104.51 214.587C106.734 214.164 108.92 213.481 111.078 212.777C113.207 212.083 115.132 210.951 116.745 209.387C118.259 207.921 119.333 206.132 120.057 204.158C121.461 200.331 121.901 196.299 122.481 192.301C122.698 190.803 122.887 189.301 123.085 187.801C123.312 186.095 123.54 184.39 123.757 182.683C123.922 181.41 124.068 180.138 124.223 178.867C124.446 177.041 124.679 175.216 124.892 173.39C125.054 171.978 125.189 170.56 125.336 169.144C125.521 167.334 125.719 165.529 125.881 163.716C126.003 162.343 125.953 160.943 126.197 159.593C126.645 157.119 127.815 155.015 130.008 153.652C130.925 153.085 131.963 152.711 132.979 152.229L132.804 151.964C131.864 150.744 130.901 149.544 129.979 148.31C128.531 146.373 127.49 144.213 126.443 142.043C125.452 139.985 124.239 138.038 123.196 136.003C121.375 132.454 119.52 128.914 117.842 125.299C115.732 120.752 114.07 116.048 113.548 111.011C113.325 108.882 113.268 106.753 113.701 104.643C114.391 101.273 116.15 98.637 119.11 96.8287C121.856 95.1524 124.915 94.6103 128.048 94.4408C129.992 94.3356 131.948 94.4212 133.965 94.4212L133.899 94.0806C132.644 91.4556 131.472 88.7859 130.097 86.2251C128.16 82.6085 125.678 79.3486 122.917 76.3223C120.874 74.0842 118.657 72.0084 116.23 70.1698C113.844 68.3633 111.329 66.7494 108.646 65.4315C105.446 63.8569 102.111 62.6406 98.6162 61.8649C95.2546 61.1195 91.8752 60.6629 88.4263 60.6255C85.4874 60.5934 82.5663 60.7289 79.7023 61.3905C75.3795 62.391 71.4259 64.1707 67.9894 67.0526C66.0688 68.6629 64.3907 70.4694 62.9265 72.481C61.2021 74.8439 59.8147 77.4012 58.627 80.078C56.997 83.7534 55.8789 87.575 55.112 91.5055C54.7304 93.4671 54.4308 95.4413 54.1259 97.4154C54.0189 98.1091 54.0117 98.8135 53.9475 99.6071L55.2529 98.9277L56.5262 98.357C60.8365 96.3864 65.3001 95.1185 70.0973 95.2629C72.1374 95.3236 74.0848 95.7284 75.9002 96.6218C79.3777 98.3374 81.4107 101.253 82.2952 104.941C82.9051 107.488 83.3242 110.084 83.7308 112.675C84.0482 114.698 84.3746 116.741 84.4102 118.781C84.4619 121.763 84.3121 124.752 84.1499 127.732C84.0125 130.271 83.4829 132.77 82.5948 135.14C80.9827 139.448 79.1851 143.687 77.507 147.971C76.9524 149.387 76.5262 150.851 76.0036 152.408L78.1222 152.41C78.379 152.415 78.6412 152.422 78.8891 152.481C80.8168 152.936 82.4914 153.809 83.8628 155.293C85.696 157.262 86.6554 159.566 86.7036 162.236V162.236ZM49.8833 141.808C48.7884 139.215 48.1303 136.509 47.9324 133.715C47.7469 131.086 48.059 128.472 48.3301 125.854C48.5904 123.32 48.8116 120.773 48.8865 118.23C49.0131 114.045 48.7313 109.87 48.5316 105.688C48.4121 103.199 48.701 100.679 48.9221 98.184C49.1219 95.937 49.3715 93.6847 49.7977 91.4698C50.5093 87.7534 51.4562 84.0904 52.8026 80.5398C54.0777 77.1729 55.5472 73.897 57.6158 70.9456C59.0371 68.9197 60.6457 67.0312 62.1918 65.0517L61.7317 64.8876C56.6974 63.2898 51.5793 62.0379 46.3131 61.494C43.8254 61.2354 41.327 61.0856 38.8321 60.9358C38.0653 60.8912 37.2877 60.9946 36.5191 61.0677C34.6163 61.2514 32.6885 61.3228 30.816 61.6794C27.6293 62.2857 24.5709 63.3058 21.7407 64.9661C19.1977 66.4569 17.0631 68.3811 15.2744 70.6923C13.3003 73.2443 11.9681 76.1297 11.014 79.2041C9.88698 82.8332 9.34842 86.5692 9.20397 90.3374C9.07735 93.6419 9.01494 96.9642 9.5856 100.256C10.0082 102.705 10.2918 105.182 10.759 107.623C11.3975 110.949 12.0822 114.27 12.874 117.562C14.0029 122.277 15.1335 126.995 16.4728 131.653C17.7532 136.114 19.1959 140.534 20.7652 144.904C22.0457 148.468 23.5276 151.967 25.088 155.418C26.1045 157.667 27.335 159.832 28.6261 161.936C29.9975 164.172 31.5597 166.294 33.6747 167.917C36.3479 169.965 38.4148 170.284 41.1326 168.035C42.2953 167.074 43.2779 165.883 44.2908 164.75C45.8976 162.953 47.4491 161.101 49.0505 159.295C51.0889 156.996 53.1522 154.721 55.2012 152.429C55.6345 151.946 56.0536 151.447 56.4745 150.958L55.7736 150.346C53.2324 147.899 51.2601 145.064 49.8833 141.808ZM127.174 73.3227C128.84 75.2755 130.452 77.2853 131.939 79.3753C134.818 83.4199 137.118 87.7855 138.814 92.4578C139.563 94.5175 140.162 96.5969 139.895 98.8492C139.709 100.427 139.722 102.027 139.584 103.614C139.469 104.934 139.258 106.246 139.089 107.563C138.832 109.546 138.461 111.525 138.35 113.517C138.243 115.414 138.356 117.33 138.475 119.229C138.595 121.16 138.855 123.083 139.032 125.009C139.231 127.197 139.502 129.38 139.563 131.571C139.613 133.369 139.452 135.175 139.297 136.973C139.11 139.136 138.563 141.23 137.746 143.236C137.17 144.652 136.483 146.022 135.836 147.438L136.096 147.712L136.492 148.019L136.893 147.306C140.26 141.997 143.256 136.484 145.847 130.762C147.52 127.077 149.079 123.34 150.58 119.58C152.918 113.729 154.771 107.716 156.2 101.579C156.842 98.826 157.334 96.0298 157.769 93.2335C158.11 91.0472 158.391 88.8359 158.456 86.6299C158.522 84.2902 158.393 81.9326 158.177 79.6C158.015 77.8381 157.58 76.0655 156.478 74.6299C154.702 72.3241 152.786 70.1199 150.431 68.374C148.446 66.9063 146.466 65.3959 144.339 64.1618C140.963 62.2019 137.309 60.9001 133.491 60.012C129.762 59.1435 125.988 58.769 122.19 58.6888C119.95 58.6406 117.699 58.8814 115.465 59.0936C113.439 59.2826 111.426 59.6072 109.387 59.8747C111.576 61.1052 113.735 62.2002 115.768 63.4895C120.048 66.2001 123.886 69.4618 127.174 73.3227V73.3227ZM71.5703 149.226C72.9524 144.804 74.8374 140.577 76.6617 136.329C78.1436 132.882 78.9515 129.253 79.2208 125.522C79.3545 123.684 79.3188 121.822 79.2279 119.978C79.1262 117.931 78.964 115.875 78.6644 113.847C78.281 111.254 77.8458 108.659 77.2324 106.114C76.5672 103.361 74.8909 101.442 72.0161 100.734C70.2667 100.304 68.5262 100.322 66.7553 100.602C62.4344 101.282 58.4789 102.874 54.7946 105.207C54.0527 105.676 53.6426 106.056 53.7728 107.117C54.0438 109.371 54.1027 111.661 54.092 113.934C54.0777 117.153 53.9404 120.372 53.8191 123.589C53.7799 124.636 53.6283 125.681 53.5142 126.724C53.343 128.322 53.0095 129.918 53.0202 131.514C53.0309 133.159 53.1985 134.84 53.598 136.433C54.8659 141.483 57.548 145.613 61.9475 148.529C64.6528 150.323 67.6452 151.225 70.9319 151.398C71.1494 150.644 71.351 149.932 71.5703 149.226ZM66.4058 105.911C65.8262 104.697 66.1579 103.689 67.499 103.222C67.8271 103.11 68.1624 102.985 68.5012 102.953C68.9702 102.906 69.4428 102.94 69.9154 102.94C71.6185 102.951 73.2556 103.188 74.659 104.269C75.5614 104.964 75.8039 105.883 75.219 106.831C74.3897 108.174 73.1289 108.848 71.5774 108.977C69.1361 109.178 67.4223 108.04 66.4058 105.911V105.911ZM134.127 105.467L134.682 100.608C134.762 99.9584 134.422 99.7801 133.876 99.764C132.159 99.7177 130.443 99.6553 128.726 99.6267C126.793 99.5911 124.908 99.9014 123.117 100.636C121.131 101.455 119.618 102.764 119 104.927C118.538 106.539 118.415 108.149 118.579 109.834C118.827 112.404 119.397 114.897 120.296 117.289C121.498 120.486 122.753 123.682 124.257 126.746C126.292 130.892 128.592 134.908 130.753 138.992C131.329 140.081 131.818 141.221 132.419 142.492C133.68 139.825 134.293 137.153 134.363 134.4C134.422 132.08 134.238 129.754 134.102 127.434C134.019 126.015 133.817 124.602 133.68 123.186C133.489 121.214 133.197 119.24 133.15 117.262C133.106 115.25 133.248 113.228 133.419 111.218C133.58 109.296 133.897 107.386 134.127 105.467V105.467ZM130.259 103.908C129.621 105.669 128.259 106.664 126.489 106.954C124.842 107.227 123.397 106.619 122.324 105.303C121.559 104.367 121.851 103.259 122.998 102.624C124.314 101.897 125.76 101.713 127.467 101.603C127.932 101.686 128.628 101.76 129.291 101.947C130.252 102.218 130.609 102.945 130.259 103.908V103.908ZM79.26 158.127C78.3184 157.356 77.0701 157.312 76.1748 158.157C75.0621 159.209 74.083 160.411 73.104 161.595C71.9751 162.965 70.9123 164.388 69.4571 165.449C67.3367 166.992 64.8597 167.63 62.3737 168.235C60.3978 168.716 58.4112 169.164 56.4299 169.624L56.4049 169.881C56.9934 170.152 57.5623 170.492 58.1776 170.687C61.2003 171.643 64.2765 172.121 67.4722 171.85C69.7763 171.652 71.9733 171.149 74.0545 170.162C76.9203 168.805 79.1262 166.653 81.0005 164.153C81.3144 163.735 81.4571 163.118 81.4927 162.58C81.6193 160.679 80.6546 159.265 79.26 158.127V158.127ZM134.445 157.303C132.963 157.8 131.757 158.558 131.399 160.162C131.155 161.246 131.065 162.368 130.971 163.479C130.953 163.675 131.197 164.035 131.383 164.085C132.524 164.386 133.673 164.741 134.839 164.846C136.275 164.977 137.733 164.936 139.178 164.864C140.736 164.786 142.306 164.684 143.843 164.427C147.461 163.817 150.966 162.829 154.076 160.775C155.199 160.035 156.308 159.279 157.425 158.526L157.332 158.368C156.143 158.544 154.957 158.76 153.762 158.887C151.329 159.147 148.895 159.422 146.454 159.562C145.275 159.63 144.08 159.404 142.892 159.307C140.899 159.145 138.951 158.703 137.266 157.636C136.294 157.023 135.481 156.955 134.445 157.303V157.303Z" fill="#336791"/>
<path d="M208.271 98.5663C211.772 97.9835 216.348 97.4839 222.179 97.4839C229.336 97.4839 234.584 99.1491 237.915 102.146C240.995 104.811 242.827 108.89 242.827 113.889C242.827 118.968 241.325 122.964 238.494 125.878C234.664 129.958 228.42 132.039 221.343 132.039C219.178 132.039 217.18 131.956 215.518 131.54V154.023H208.271V98.5663V98.5663ZM215.518 125.625C217.1 126.041 219.098 126.208 221.513 126.208C230.252 126.208 235.583 121.962 235.583 114.219C235.583 106.809 230.338 103.229 222.345 103.229C219.181 103.229 216.767 103.478 215.518 103.812V125.625V125.625ZM286.704 133.535C286.704 148.438 276.377 154.935 266.635 154.935C255.729 154.935 247.319 146.942 247.319 134.201C247.319 120.713 256.145 112.803 267.301 112.803C278.877 112.8 286.704 121.212 286.704 133.535V133.535ZM254.733 133.951C254.733 142.776 259.811 149.437 266.972 149.437C273.965 149.437 279.207 142.86 279.207 133.784C279.207 126.957 275.797 118.298 267.135 118.298C258.473 118.298 254.733 126.291 254.733 133.951ZM294.943 146.523C297.108 147.938 300.938 149.437 304.601 149.437C309.93 149.437 312.427 146.773 312.427 143.442C312.427 139.945 310.349 138.031 304.934 136.032C297.691 133.451 294.277 129.455 294.277 124.626C294.277 118.132 299.522 112.803 308.181 112.803C312.261 112.803 315.844 113.969 318.092 115.301L316.26 120.63C314.678 119.631 311.764 118.298 308.018 118.298C303.688 118.298 301.274 120.796 301.274 123.793C301.274 127.124 303.692 128.622 308.937 130.621C315.93 133.285 319.511 136.782 319.511 142.776C319.511 149.853 314.016 154.849 304.441 154.849C300.028 154.849 295.949 153.766 293.118 152.101L294.943 146.523V146.523ZM337.741 102.143V113.716H348.228V119.294H337.741V141.025C337.741 146.02 339.153 148.851 343.236 148.851C345.151 148.851 346.566 148.601 347.482 148.351L347.815 153.846C346.403 154.429 344.152 154.845 341.324 154.845C337.911 154.845 335.16 153.763 333.411 151.765C331.333 149.6 330.581 146.02 330.581 141.274V119.294H324.336V113.716H330.581V104.058L337.741 102.143V102.143ZM390.693 113.719C390.523 116.633 390.36 119.88 390.36 124.793V148.188C390.36 157.43 388.528 163.091 384.615 166.591C380.702 170.255 375.04 171.42 369.962 171.42C365.133 171.42 359.804 170.255 356.554 168.09L358.386 162.512C361.05 164.177 365.213 165.675 370.208 165.675C377.702 165.675 383.197 161.762 383.197 151.605V147.109H383.03C380.782 150.856 376.453 153.853 370.208 153.853C360.217 153.853 353.057 145.36 353.057 134.201C353.057 120.546 361.966 112.803 371.207 112.803C378.204 112.803 382.034 116.467 383.783 119.797H383.949L384.282 113.719H390.693V113.719ZM383.117 129.622C383.117 128.373 383.033 127.29 382.7 126.291C381.368 122.045 377.788 118.548 372.459 118.548C365.463 118.548 360.47 124.46 360.47 133.784C360.47 141.694 364.467 148.271 372.376 148.271C376.872 148.271 380.952 145.441 382.534 140.778C382.95 139.529 383.12 138.114 383.12 136.865V129.622H383.117ZM402.013 126.291C402.013 121.545 401.93 117.466 401.68 113.719H408.094L408.34 121.629H408.674C410.505 116.217 414.918 112.803 419.83 112.803C420.663 112.803 421.242 112.887 421.908 113.053V119.964C421.162 119.797 420.41 119.714 419.414 119.714C414.252 119.714 410.585 123.627 409.589 129.122C409.423 130.121 409.256 131.287 409.256 132.536V154.016H402.013V126.291ZM432.488 135.2C432.655 145.108 438.979 149.187 446.306 149.187C451.555 149.187 454.715 148.271 457.463 147.106L458.712 152.351C456.131 153.517 451.718 154.849 445.307 154.849C432.902 154.849 425.492 146.689 425.492 134.534C425.492 122.378 432.652 112.8 444.391 112.8C457.546 112.8 461.043 124.373 461.043 131.783C461.043 133.282 460.876 134.447 460.793 135.197H432.488V135.2ZM453.969 129.955C454.049 125.292 452.051 118.049 443.812 118.049C436.402 118.049 433.155 124.876 432.569 129.955H453.969V129.955ZM469.369 145.191C472.616 147.189 477.361 148.854 482.357 148.854C489.767 148.854 494.096 144.941 494.096 139.279C494.096 134.034 491.099 131.037 483.522 128.123C474.364 124.876 468.703 120.13 468.703 112.221C468.703 103.478 475.946 96.9844 486.853 96.9844C492.598 96.9844 496.76 98.3165 499.258 99.7319L497.26 105.643C495.428 104.644 491.682 102.979 486.603 102.979C478.943 102.979 476.029 107.558 476.029 111.388C476.029 116.633 479.44 119.214 487.186 122.212C496.677 125.878 501.506 130.454 501.506 138.697C501.506 147.355 495.095 154.849 481.857 154.849C476.446 154.849 470.534 153.267 467.534 151.269L469.369 145.191V145.191ZM557.705 162.259C550.129 160.26 542.719 158.012 536.225 155.765C535.059 155.348 533.894 154.932 532.811 154.932C519.49 154.432 508.084 144.608 508.084 126.541C508.084 108.557 519.074 96.9844 534.227 96.9844C549.463 96.9844 559.374 108.807 559.374 125.375C559.374 139.779 552.713 149.021 543.388 152.268V152.601C548.966 154.016 555.044 155.348 559.79 156.181L557.705 162.259V162.259ZM551.711 125.708C551.711 114.469 545.886 102.892 533.977 102.892C521.738 102.892 515.743 114.216 515.827 126.374C515.743 138.28 522.321 149.021 533.644 149.021C545.22 149.021 551.711 138.53 551.711 125.708V125.708ZM568.775 97.9002H576.022V147.938H600V154.016H568.775V97.9002Z" fill="#336791"/>
</svg>
